<svg enable-background="new 0 0 241 72" viewBox="0 0 241 72" xmlns="http://www.w3.org/2000/svg"><g fill="#fff"><g enable-background="new"><path d="m115.56 19.551v-12.891h-4.76v-3.028h13.135v3.028h-4.761v12.89z"/><path d="m131.283 19.551v-15.919h5.64c1.123 0 2.148.15 3.077.452.927.302 1.673.809 2.234 1.526.561.716.842 1.709.842 2.978 0 1.173-.26 2.136-.781 2.893s-1.205 1.323-2.05 1.698l3.588 6.372h-4.028l-3.052-5.738h-1.88v5.738zm3.589-8.594h1.757c1.937 0 2.906-.789 2.906-2.369 0-.781-.244-1.326-.733-1.636-.488-.309-1.212-.464-2.173-.464h-1.757z"/><path d="m156.478 19.844c-1.937 0-3.389-.553-4.357-1.661-.969-1.106-1.453-2.693-1.453-4.76v-9.791h3.589v10.157c0 .944.182 1.673.548 2.185.367.513.924.769 1.673.769.765 0 1.33-.256 1.698-.769.366-.513.548-1.241.548-2.185v-10.157h3.468v9.791c0 2.067-.468 3.654-1.404 4.76-.936 1.108-2.373 1.661-4.31 1.661z"/><path d="m175.912 19.844c-1.074 0-2.136-.196-3.185-.587-1.05-.39-2.006-.96-2.869-1.708l2.075-2.466c.602.489 1.265.887 1.99 1.197.725.309 1.469.464 2.234.464s1.33-.13 1.696-.391c.367-.26.55-.594.55-1.001 0-.569-.219-.976-.659-1.221-.439-.243-1.042-.52-1.806-.83l-2.052-.879c-.585-.228-1.138-.533-1.659-.916s-.941-.858-1.258-1.428-.476-1.237-.476-2.003c0-.879.248-1.676.744-2.393.497-.715 1.185-1.285 2.064-1.708s1.888-.635 3.027-.635c.961 0 1.905.18 2.832.538s1.75.879 2.466 1.563l-1.831 2.27c-.554-.407-1.107-.72-1.661-.939-.553-.221-1.221-.33-2.002-.33-.603 0-1.087.123-1.453.366-.366.244-.55.603-.55 1.075s.244.833.733 1.086c.488.253 1.115.517 1.88.794l1.929.83c1.057.391 1.892.927 2.502 1.612.61.683.916 1.587.916 2.71 0 .879-.241 1.693-.72 2.441-.48.749-1.181 1.351-2.1 1.806-.919.454-2.039.683-3.357.683z"/><path d="m193.685 19.551v-12.891h-4.76v-3.028h13.135v3.028h-4.761v12.89z"/><path d="m209.945 19.551v-15.919h10.547v3.028h-6.933v3.197h5.884v3.003h-5.884v3.662h7.178v3.028z"/><path d="m228.939 19.551v-15.919h4.395c1.546 0 2.893.277 4.04.83 1.148.554 2.039 1.413 2.674 2.576.634 1.164.951 2.657.951 4.48s-.314 3.328-.939 4.517c-.627 1.189-1.497 2.071-2.612 2.649-1.116.578-2.414.867-3.895.867zm3.614-2.905h.587c.83 0 1.558-.162 2.185-.489.626-.325 1.115-.862 1.465-1.611.349-.749.525-1.758.525-3.028s-.175-2.266-.525-2.991c-.35-.724-.839-1.236-1.465-1.538-.627-.3-1.355-.452-2.185-.452h-.587z"/></g><g enable-background="new"><path d="m112.289 43.965v-15.918h10.547v3.028h-6.933v3.197h5.884v3.003h-5.884v3.662h7.178v3.028z"/><path d="m130.013 43.965 4.64-8.179-4.37-7.739h4.028l1.538 3.003c.179.359.366.749.561 1.172.196.423.415.887.659 1.391h.098c.196-.504.383-.968.561-1.391.179-.423.35-.813.513-1.172l1.416-3.003h3.858l-4.37 7.911 4.639 8.007h-4.004l-1.733-3.247c-.423-.781-.846-1.651-1.27-2.612h-.098c-.194.488-.39.939-.585 1.354-.195.416-.391.834-.587 1.258l-1.659 3.247z"/><path d="m150.936 43.965v-15.918h5.64c1.155 0 2.202.159 3.138.476.936.318 1.684.851 2.246 1.6.561.749.843 1.766.843 3.052 0 1.237-.286 2.254-.855 3.052-.57.798-1.327 1.388-2.271 1.77-.944.383-1.978.573-3.101.573h-2.05v5.396h-3.59zm3.589-8.252h1.831c1.953 0 2.929-.846 2.929-2.539 0-.83-.248-1.416-.744-1.758-.497-.341-1.225-.513-2.185-.513h-1.831z"/><path d="m170.882 43.965v-15.918h10.548v3.028h-6.935v3.197h5.884v3.003h-5.884v3.662h7.179v3.028z"/><path d="m189.876 43.965v-15.918h5.64c1.123 0 2.148.15 3.077.452.927.302 1.673.809 2.234 1.526.561.716.842 1.709.842 2.978 0 1.173-.26 2.136-.781 2.893s-1.205 1.323-2.05 1.698l3.588 6.372h-4.028l-3.052-5.738h-1.88v5.738h-3.59zm3.59-8.594h1.757c1.937 0 2.906-.789 2.906-2.369 0-.781-.244-1.326-.733-1.636-.488-.309-1.212-.464-2.173-.464h-1.757z"/><path d="m213.217 43.965v-12.89h-4.76v-3.028h13.135v3.028h-4.761v12.89z"/><path d="m234.507 44.259c-1.074 0-2.136-.196-3.187-.587-1.049-.39-2.006-.96-2.868-1.708l2.075-2.466c.602.489 1.265.887 1.99 1.197.724.309 1.469.464 2.234.464.764 0 1.33-.13 1.696-.391.366-.26.55-.594.55-1.001 0-.569-.221-.976-.659-1.221-.44-.243-1.042-.52-1.807-.83l-2.05-.879c-.587-.228-1.14-.533-1.661-.916s-.939-.858-1.256-1.428c-.318-.57-.477-1.237-.477-2.003 0-.879.248-1.676.745-2.393.496-.715 1.184-1.285 2.062-1.708.88-.423 1.888-.635 3.028-.635.96 0 1.904.18 2.832.538.927.358 1.749.879 2.465 1.563l-1.831 2.27c-.553-.407-1.107-.72-1.661-.939-.553-.221-1.221-.33-2.002-.33-.602 0-1.086.123-1.452.366-.367.244-.55.603-.55 1.075s.244.833.732 1.086c.489.253 1.115.517 1.88.794l1.929.83c1.057.391 1.892.927 2.502 1.612.61.683.916 1.587.916 2.71 0 .879-.24 1.693-.72 2.441s-1.18 1.351-2.099 1.806c-.92.454-2.038.683-3.356.683z"/></g><g enable-background="new"><path d="m118.416 68.673c-1.351 0-2.58-.309-3.686-.927-1.107-.619-1.986-1.534-2.637-2.747-.651-1.212-.976-2.706-.976-4.481 0-1.774.325-3.283.976-4.529.651-1.245 1.534-2.192 2.649-2.844 1.115-.65 2.356-.976 3.723-.976 1.074 0 1.994.207 2.76.623.764.415 1.4.882 1.904 1.403l-1.978 2.222c-.342-.342-.716-.619-1.123-.831-.407-.211-.927-.317-1.563-.317-1.042 0-1.909.457-2.6 1.367-.691.912-1.037 2.165-1.037 3.76 0 1.627.317 2.897.952 3.809.634.912 1.578 1.367 2.831 1.367.309 0 .607-.041.892-.123.284-.081.508-.203.671-.366v-2.735h-2.32v-2.928h5.542v7.324c-.536.504-1.249.952-2.136 1.342-.887.392-1.834.587-2.844.587z"/><path d="m131.283 68.38v-15.919h5.64c1.123 0 2.148.15 3.077.452.927.302 1.673.809 2.234 1.526.561.716.842 1.709.842 2.978 0 1.173-.26 2.136-.781 2.893s-1.205 1.323-2.05 1.698l3.588 6.372h-4.028l-3.052-5.738h-1.88v5.738zm3.589-8.594h1.757c1.937 0 2.906-.789 2.906-2.369 0-.781-.244-1.326-.733-1.636-.488-.309-1.212-.464-2.173-.464h-1.757z"/><path d="m156.429 68.673c-1.253 0-2.364-.317-3.332-.952-.969-.634-1.721-1.57-2.259-2.807-.536-1.237-.806-2.759-.806-4.566 0-1.774.269-3.268.806-4.48.538-1.212 1.29-2.132 2.259-2.759.968-.627 2.079-.941 3.332-.941 1.27 0 2.384.314 3.345.941.96.627 1.709 1.546 2.246 2.759.538 1.212.806 2.706.806 4.48 0 1.807-.268 3.328-.806 4.566-.536 1.237-1.286 2.173-2.246 2.807-.961.635-2.075.952-3.345.952zm0-3.101c.831 0 1.49-.44 1.978-1.318.489-.879.733-2.182.733-3.907 0-1.644-.244-2.902-.733-3.772-.488-.87-1.147-1.307-1.978-1.307-.83 0-1.489.436-1.978 1.307-.488.87-.732 2.128-.732 3.772 0 1.725.244 3.028.732 3.907.489.878 1.148 1.318 1.978 1.318z"/><path d="m176.009 68.673c-1.937 0-3.389-.553-4.357-1.661-.969-1.106-1.453-2.693-1.453-4.76v-9.791h3.589v10.157c0 .944.182 1.673.548 2.185.367.513.924.769 1.673.769.765 0 1.33-.256 1.698-.769.366-.513.548-1.241.548-2.185v-10.157h3.468v9.791c0 2.067-.469 3.654-1.404 4.76-.936 1.108-2.372 1.661-4.31 1.661z"/><path d="m189.999 68.38v-15.919h5.64c1.155 0 2.201.159 3.136.476.936.318 1.684.851 2.246 1.6.563.749.843 1.766.843 3.052 0 1.237-.285 2.254-.855 3.052s-1.327 1.388-2.27 1.77c-.944.383-1.978.573-3.101.573h-2.052v5.396zm3.588-8.252h1.831c1.954 0 2.93-.846 2.93-2.539 0-.83-.248-1.416-.745-1.758-.496-.341-1.224-.513-2.185-.513h-1.831z"/></g><g transform="translate(4499.459 -22562.873)"><path d="m-4447.178 22566.119c10.367-4.115 22.113-2.686 31.192 3.793-15.289-11.574-37.066-8.562-48.64 6.727-3.638 4.807-5.962 10.477-6.744 16.451 1.313-.795 2.653-1.586 4.019-2.369 2.039-11.127 9.661-20.422 20.173-24.602z"/><path d="m-4422.766 22627.578c-16.733 6.6-35.668-1.424-42.564-18.037-1.383.543-2.732 1.09-4.046 1.641.084.225.168.449.257.674 7.36 18.527 27.962 27.732 46.021 20.561 13.119-5.211 20.106-17.17 20.713-30.66-1.686 11.633-9.458 21.477-20.381 25.82z"/><path d="m-4412.833 22572.535c-1.182-.109-2.373-.098-3.553.035-8.998.977-21.519 5.334-37.215 12.965-4.918 2.391-9.65 4.912-14.097 7.496-1.336.777-2.646 1.559-3.929 2.348-6.056 3.65-11.818 7.77-17.235 12.314-1.188 1.02-2.287 2.018-3.296 2.992 1.079-.895 2.246-1.807 3.502-2.734 5.375-3.877 11.031-7.348 16.921-10.385 1.257-.66 2.539-1.314 3.846-1.963 5.04-2.498 10.433-4.9 16.042-7.127 16.22-6.443 29.03-9.861 38.076-10.162 2.078-.088 4.159.035 6.211.367-1.523-2.238-3.292-4.298-5.273-6.146z"/><path d="m-4447.9 22598.402c-6.575 2.611-12.849 5.418-18.486 8.25-1.317.66-2.598 1.322-3.843 1.986-2.258 1.203-4.376 2.4-6.354 3.59 2.042-.984 4.226-1.963 6.55-2.941 1.291-.541 2.62-1.08 3.987-1.615 5.908-2.318 12.462-4.545 19.298-6.551 24.856-7.289 38.866-6.631 44.699-3.295.055-2.066-.085-4.135-.418-6.176-5.326-3.498-19.574-3.521-45.433 6.752z"/><path d="m-4406.027 22581.191c-6.341-1.781-18.799-1.16-45.032 9.26-5.981 2.377-11.637 4.92-16.825 7.529-1.302.65-2.573 1.309-3.813 1.975-18.323 9.766-29.778 20.102-27.466 25.92s17.09 3.922 36.783-2.32c-15.83 3.867-27.702 3.906-29.101.379-1.355-3.412 7.087-10.203 20.695-17.404 1.233-.652 2.507-1.307 3.821-1.965 5.493-2.746 11.673-5.514 18.282-8.139 23.584-9.367 38.453-10.572 45.665-7.461-.674-2.707-1.685-5.318-3.008-7.775z"/></g></g></svg>